<!DOCTYPE svg PUBLIC "-//W3C//DTD SVG 1.1//EN" "http://www.w3.org/Graphics/SVG/1.1/DTD/svg11.dtd">
<svg viewBox="0 0 21 21" xmlns="http://www.w3.org/2000/svg"><g fill="#cc1417"><path d="m10.5 21a10.5 10.5 0 1 1 10.5-10.5 10.51 10.51 0 0 1 -10.5 10.5zm0-19.06a8.56 8.56 0 1 0 8.56 8.56 8.57 8.57 0 0 0 -8.56-8.56z"/><path d="m16.49 9.43a5.12 5.12 0 0 0 -3.22-3.79c-1.48-.54-4-.5-5.09.24a6.26 6.26 0 0 0 -1.66 1.87.21.21 0 0 0 .19.32h.2c-.25.47-.57 1.07-.79 1.57a23.23 23.23 0 0 0 -.84 2.24h-.28a.28.28 0 0 0 -.3.27 4.81 4.81 0 0 0 0 1.12 10.11 10.11 0 0 0 .44 1.42s7.79.2 8.42 0a4.2 4.2 0 0 0 2-1.47 6.36 6.36 0 0 0 .88-1.48 4.26 4.26 0 0 0 .05-2.31zm-5 .2a9.53 9.53 0 0 1 -2.59 2 10.69 10.69 0 0 1 -2.63.25 19.42 19.42 0 0 1 .73-1.88c.28-.62.73-1.45 1-1.89.48 0 1 .07 1.65.13 1.58.14 1.77.23 2 .49.35.45-.14.9-.14.9zm2.08.25a.8.8 0 1 1 .8-.79.79.79 0 0 1 -.78.79z"/></g></svg>